# This file uses millimeters as units for non-parametric coordinates.

mtllib cortinas_pa_2_x_pos.mtl
g default
v 7.057313 6.238598 4.519702
v 6.731730 6.238598 4.526882
v 7.057799 6.238598 4.613952
v 6.732216 6.238598 4.621134
v 7.057799 5.868727 4.613952
v 6.732216 5.868727 4.621134
v 7.057313 5.868727 4.519702
v 6.731730 5.868727 4.526882
vt 1.000015 -0.000001
vt 0.848917 -0.000001
vt 0.151127 -0.000001
vt 0.000015 -0.000001
vt 0.151127 1.000000
vt 0.000015 1.000000
vt 0.848917 1.000000
vt 1.000015 1.000000
vn 0.000000 1.000000 -0.000004
vn 0.000000 1.000000 0.000012
vn 0.000000 1.000000 -0.000001
vn 0.000000 1.000000 0.000016
vn 0.022054 0.000000 0.999757
vn 0.022054 0.000000 0.999757
vn 0.022054 0.000000 0.999757
vn 0.022054 0.000000 0.999757
vn 0.000000 -1.000000 0.000000
vn 0.000000 -1.000000 -0.000001
vn 0.000000 -1.000000 -0.000003
vn 0.000000 -1.000000 -0.000003
vn -0.022046 0.000000 -0.999757
vn -0.022045 0.000000 -0.999757
vn -0.022045 0.000000 -0.999757
vn -0.022044 0.000000 -0.999757
vn -0.999987 0.000000 0.005155
vn -0.999987 0.000000 0.005155
vn -0.999987 0.000000 0.005155
vn -0.999987 0.000000 0.005155
vn 0.999987 0.000000 -0.005160
vn 0.999987 0.000000 -0.005160
vn 0.999987 0.000000 -0.005160
vn 0.999987 0.000000 -0.005160
s 1
g polySurface268 polySurface74
usemtl lambert7SG
f 1/1/1 2/2/2 3/3/3
f 3/3/3 2/2/2 4/4/4
s 2
f 3/3/5 4/4/6 5/5/7
f 5/5/7 4/4/6 6/6/8
s 3
f 6/6/9 8/7/10 5/5/11
f 5/5/11 8/7/10 7/8/12
s 4
f 7/8/13 8/7/14 1/1/15
f 1/1/15 8/7/14 2/2/16
s 5
f 2/2/17 8/7/18 4/4/19
f 4/4/19 8/7/18 6/6/20
s 6
f 7/8/21 1/1/22 5/5/23
f 5/5/23 1/1/22 3/3/24
g default
v 7.057314 6.246562 -2.821451
v 6.731730 6.246562 -2.816684
v 7.057800 6.246562 -2.758868
v 6.732217 6.246562 -2.754099
v 7.057800 5.876690 -2.758868
v 6.732217 5.876690 -2.754099
v 7.057314 5.876690 -2.821451
v 6.731730 5.876690 -2.816684
vt 1.000015 -0.000001
vt 0.848917 -0.000001
vt 0.000015 -0.000001
vt 0.151127 -0.000001
vt 0.000015 1.000000
vt 0.151127 1.000000
vt 0.848917 1.000000
vt 1.000015 1.000000
vn 0.000000 1.000000 -0.000016
vn 0.000000 1.000000 -0.000002
vn 0.000000 1.000000 -0.000014
vn 0.000000 1.000000 0.000000
vn 0.014645 0.000000 0.999893
vn 0.014645 0.000000 0.999893
vn 0.014645 0.000000 0.999893
vn 0.014645 0.000000 0.999893
vn 0.000000 -1.000000 -0.000000
vn 0.000000 -1.000000 -0.000000
vn 0.000000 -1.000000 -0.000001
vn 0.000000 -1.000000 -0.000001
vn -0.014641 0.000000 -0.999893
vn -0.014639 0.000000 -0.999893
vn -0.014639 0.000000 -0.999893
vn -0.014637 0.000000 -0.999893
vn -0.999970 0.000000 0.007771
vn -0.999970 0.000000 0.007771
vn -0.999970 0.000000 0.007771
vn -0.999970 0.000000 0.007771
vn 0.999970 0.000000 -0.007764
vn 0.999970 0.000000 -0.007764
vn 0.999970 0.000000 -0.007764
vn 0.999970 0.000000 -0.007764
s 1
g polySurface148 polySurface147
usemtl lambert7SG
f 9/9/25 10/10/26 11/12/27
f 11/12/27 10/10/26 12/11/28
s 2
f 11/12/29 12/11/30 13/14/31
f 13/14/31 12/11/30 14/13/32
s 3
f 14/13/33 16/15/34 13/14/35
f 13/14/35 16/15/34 15/16/36
s 4
f 15/16/37 16/15/38 9/9/39
f 9/9/39 16/15/38 10/10/40
s 5
f 10/10/41 16/15/42 12/11/43
f 12/11/43 16/15/42 14/13/44
s 6
f 15/16/45 9/9/46 13/14/47
f 13/14/47 9/9/46 11/12/48
