# This file uses millimeters as units for non-parametric coordinates.

mtllib cortinas_pa_z_pos.mtl
g default
v 11.702530 7.062667 -0.062137
v 11.686518 7.062667 -0.993527
v 11.492327 7.062667 -0.060747
v 11.476309 7.062667 -0.992137
v 11.492327 6.004375 -0.060747
v 11.476309 6.004375 -0.992137
v 11.702530 6.004375 -0.062137
v 11.686518 6.004375 -0.993527
vt 1.000015 -0.000001
vt 0.848917 -0.000001
vt 0.000015 -0.000001
vt 0.151127 -0.000001
vt 0.000015 1.000000
vt 0.151127 1.000000
vt 0.848917 1.000000
vt 1.000015 1.000000
vn 0.000000 1.000000 0.000000
vn 0.000000 1.000000 0.000000
vn 0.000000 1.000000 0.000000
vn 0.000000 1.000000 0.000000
vn -0.999852 0.000000 0.017195
vn -0.999852 0.000000 0.017195
vn -0.999852 0.000000 0.017196
vn -0.999852 0.000000 0.017196
vn -0.000003 -1.000000 0.000000
vn 0.000003 -1.000000 0.000000
vn -0.000002 -1.000000 0.000000
vn 0.000004 -1.000000 0.000000
vn 0.999852 0.000000 -0.017189
vn 0.999852 0.000000 -0.017189
vn 0.999852 0.000000 -0.017189
vn 0.999852 0.000000 -0.017189
vn -0.006613 0.000000 -0.999978
vn -0.006613 0.000000 -0.999978
vn -0.006613 0.000000 -0.999978
vn -0.006613 0.000000 -0.999978
vn 0.006613 0.000000 0.999978
vn 0.006613 0.000000 0.999978
vn 0.006613 0.000000 0.999978
vn 0.006613 0.000000 0.999978
s 1
g polySurface94 polySurface89
usemtl lambert7SG
f 1/1/1 2/2/2 3/4/3
f 3/4/3 2/2/2 4/3/4
s 2
f 3/4/5 4/3/6 5/6/7
f 5/6/7 4/3/6 6/5/8
s 3
f 5/6/9 6/5/10 7/8/11
f 7/8/11 6/5/10 8/7/12
s 4
f 7/8/13 8/7/14 1/1/15
f 1/1/15 8/7/14 2/2/16
s 5
f 2/2/17 8/7/18 4/3/19
f 4/3/19 8/7/18 6/5/20
s 6
f 7/8/21 1/1/22 5/6/23
f 5/6/23 1/1/22 3/4/24
