# This file uses millimeters as units for non-parametric coordinates.

mtllib cortina_pb_x_posi.mtl
g default
v -2.646435 2.943110 5.529497
v -4.147988 2.943110 5.545509
v -2.644194 2.943110 5.739700
v -4.145746 2.943110 5.755718
v -2.644194 1.237303 5.739700
v -4.145746 1.237303 5.755718
v -2.646435 1.237303 5.529497
v -4.147988 1.237303 5.545509
vt 1.000015 -0.000001
vt 0.848917 -0.000001
vt 0.151127 -0.000001
vt 0.000015 -0.000001
vt 0.151127 1.000000
vt 0.000015 1.000000
vt 1.000015 1.000000
vt 0.848917 1.000000
vn 0.000000 1.000000 0.000002
vn 0.000000 1.000000 -0.000003
vn 0.000000 1.000000 0.000001
vn 0.000000 1.000000 -0.000003
vn 0.010667 0.000000 0.999943
vn 0.010667 0.000000 0.999943
vn 0.010667 0.000000 0.999943
vn 0.010667 0.000000 0.999943
vn 0.000000 -1.000000 0.000001
vn 0.000000 -1.000000 -0.000001
vn 0.000000 -1.000000 0.000000
vn 0.000000 -1.000000 -0.000001
vn -0.010663 0.000000 -0.999943
vn -0.010663 0.000000 -0.999943
vn -0.010663 0.000000 -0.999943
vn -0.010663 0.000000 -0.999943
vn -0.999943 0.000000 0.010663
vn -0.999943 0.000000 0.010663
vn -0.999943 0.000000 0.010663
vn -0.999943 0.000000 0.010663
vn 0.999943 0.000000 -0.010663
vn 0.999943 0.000000 -0.010663
vn 0.999943 0.000000 -0.010663
vn 0.999943 0.000000 -0.010663
s 1
g polySurface266 polySurface74
usemtl lambert7SG
f 1/1/1 2/2/2 3/3/3
f 3/3/3 2/2/2 4/4/4
s 2
f 3/3/5 4/4/6 5/5/7
f 5/5/7 4/4/6 6/6/8
s 3
f 5/5/9 6/6/10 7/7/11
f 7/7/11 6/6/10 8/8/12
s 4
f 7/7/13 8/8/14 1/1/15
f 1/1/15 8/8/14 2/2/16
s 5
f 2/2/17 8/8/18 4/4/19
f 4/4/19 8/8/18 6/6/20
s 6
f 7/7/21 1/1/22 5/5/23
f 5/5/23 1/1/22 3/3/24
g default
v 5.996475 2.943110 5.529497
v 4.393341 2.943110 5.545509
v 5.998868 2.943110 5.739700
v 4.395735 2.943110 5.755718
v 5.998868 1.237303 5.739700
v 4.395735 1.237303 5.755718
v 5.996475 1.237303 5.529497
v 4.393341 1.237303 5.545509
vt 1.000015 -0.000001
vt 0.848917 -0.000001
vt 0.151127 -0.000001
vt 0.000015 -0.000001
vt 0.151127 1.000000
vt 0.000015 1.000000
vt 1.000015 1.000000
vt 0.848917 1.000000
vn 0.000000 1.000000 0.000002
vn 0.000000 1.000000 -0.000003
vn 0.000000 1.000000 0.000001
vn 0.000000 1.000000 -0.000003
vn 0.009991 0.000000 0.999950
vn 0.009991 0.000000 0.999950
vn 0.009991 0.000000 0.999950
vn 0.009991 0.000000 0.999950
vn 0.000000 -1.000000 0.000001
vn 0.000000 -1.000000 -0.000001
vn 0.000000 -1.000000 0.000000
vn 0.000000 -1.000000 -0.000001
vn -0.009987 0.000000 -0.999950
vn -0.009987 0.000000 -0.999950
vn -0.009987 0.000000 -0.999950
vn -0.009987 0.000000 -0.999950
vn -0.999935 0.000000 0.011384
vn -0.999935 0.000000 0.011384
vn -0.999935 0.000000 0.011384
vn -0.999935 0.000000 0.011384
vn 0.999935 0.000000 -0.011385
vn 0.999935 0.000000 -0.011385
vn 0.999935 0.000000 -0.011385
vn 0.999935 0.000000 -0.011385
s 1
g polySurface74 polySurface269
usemtl lambert7SG
f 9/9/25 10/10/26 11/11/27
f 11/11/27 10/10/26 12/12/28
s 2
f 11/11/29 12/12/30 13/13/31
f 13/13/31 12/12/30 14/14/32
s 3
f 13/13/33 14/14/34 15/15/35
f 15/15/35 14/14/34 16/16/36
s 4
f 15/15/37 16/16/38 9/9/39
f 9/9/39 16/16/38 10/10/40
s 5
f 10/10/41 16/16/42 12/12/43
f 12/12/43 16/16/42 14/14/44
s 6
f 15/15/45 9/9/46 13/13/47
f 13/13/47 9/9/46 11/11/48
