# This file uses centimeters as units for non-parametric coordinates.

mtllib pez_cola.mtl
g default
v -2.973575 6.037023 -2.578696
v -2.955888 6.013096 -2.573269
v -2.973575 6.019918 -2.573269
v -2.973575 6.042724 -2.573269
v -2.973575 6.025620 -2.567843
v -2.936589 6.011581 -2.569988
v -2.955888 6.050325 -2.573269
v -2.955888 6.022404 -2.569213
v -2.955888 6.041018 -2.577326
v -2.955888 6.022404 -2.577326
v -2.955888 6.041018 -2.569213
v -2.936186 6.051677 -2.576550
v -2.973575 6.037023 -2.567843
v -2.928826 6.059223 -2.573269
v -2.936527 6.058464 -2.573269
v -2.936186 6.051677 -2.569988
v -2.935844 6.044889 -2.573269
v -2.929633 6.003227 -2.573269
v -2.936900 6.004856 -2.573269
v -2.936589 6.011581 -2.576550
v -2.936279 6.018306 -2.573269
v -2.966481 6.017431 -2.573269
v -2.966481 6.038463 -2.569415
v -2.966481 6.038463 -2.577124
v -2.966481 6.045473 -2.573269
v -2.973575 6.041299 -2.577339
v -2.973575 6.041299 -2.569200
v -2.973575 6.021343 -2.569200
v -2.978469 6.036427 -2.568153
v -2.978469 6.041583 -2.573269
v -2.944970 6.008407 -2.573269
v -2.944791 6.045239 -2.569487
v -2.944791 6.045239 -2.577052
v -2.944877 6.055311 -2.573269
v -2.955888 6.015423 -2.576312
v -2.955888 6.015423 -2.570227
v -2.955888 6.047998 -2.570227
v -2.955888 6.047998 -2.576312
v -2.966481 6.024442 -2.569415
v -2.966481 6.024442 -2.577124
v -2.978469 6.026114 -2.568153
v -2.978469 6.036427 -2.578386
v -2.944892 6.018464 -2.569487
v -2.944892 6.018464 -2.577052
v -2.955888 6.031711 -2.577326
v -2.955888 6.031711 -2.569213
v -2.939803 6.031815 -2.573269
v -2.973575 6.031321 -2.567843
v -2.973575 6.031321 -2.578696
v -2.930666 6.057336 -2.570809
v -2.930666 6.057336 -2.575730
v -2.931093 6.059772 -2.573269
v -2.930239 6.054901 -2.573269
v -2.936442 6.056767 -2.575730
v -2.935929 6.046586 -2.575730
v -2.936442 6.056767 -2.570809
v -2.935929 6.046586 -2.570809
v -2.931760 6.002958 -2.573269
v -2.931372 6.005316 -2.570809
v -2.931372 6.005316 -2.575730
v -2.930984 6.007674 -2.573269
v -2.936822 6.006537 -2.570809
v -2.936356 6.016625 -2.570809
v -2.936822 6.006537 -2.575730
v -2.936356 6.016625 -2.575730
v -2.966481 6.019184 -2.570379
v -2.966481 6.019184 -2.576160
v -2.966481 6.043721 -2.570379
v -2.966481 6.043721 -2.576160
v -2.978469 6.040294 -2.577107
v -2.978469 6.022247 -2.569432
v -2.978470 6.040294 -2.569432
v -2.944950 6.010921 -2.570432
v -2.944950 6.010921 -2.576106
v -2.944855 6.052793 -2.570432
v -2.944855 6.052793 -2.576106
v -2.966481 6.031452 -2.569415
v -2.966481 6.031452 -2.577124
v -2.978469 6.031270 -2.568153
v -2.943272 6.031902 -2.569907
v -2.943272 6.031902 -2.576632
v -2.932362 6.058460 -2.571447
v -2.932362 6.058460 -2.575092
v -2.931831 6.053278 -2.571447
v -2.931831 6.053278 -2.575092
v -2.932966 6.004398 -2.571447
v -2.932966 6.004398 -2.575092
v -2.932483 6.009483 -2.571447
v -2.932483 6.009483 -2.575092
v -2.978469 6.026114 -2.578386
v -2.973575 6.025620 -2.578696
v -2.978469 6.031270 -2.578386
v -2.973575 6.021343 -2.577339
v -2.978469 6.020958 -2.573269
v -2.978469 6.022247 -2.577107
v -2.982462 6.020950 -2.573269
v -2.982462 6.022238 -2.569435
v -2.982462 6.026102 -2.568157
v -2.982462 6.031253 -2.568157
v -2.982462 6.036405 -2.568157
v -2.982462 6.040269 -2.569435
v -2.982462 6.041556 -2.573269
v -2.982462 6.040269 -2.577104
v -2.982462 6.036405 -2.578382
v -2.982462 6.031253 -2.578382
vt 0.732100 0.511000
vt 0.732100 0.457200
vt 0.715500 0.456700
vt 0.715500 0.505300
vt 0.715500 0.541800
vt 0.732100 0.551300
vt 0.756300 0.574200
vt 0.756300 0.524600
vt 0.756300 0.458400
vt 0.792500 0.285200
vt 0.792500 0.307100
vt 0.756300 0.342600
vt 0.756300 0.326100
vt 0.756300 0.342600
vt 0.792500 0.307100
vt 0.829800 0.264600
vt 0.829700 0.240900
vt 0.829800 0.264600
vt 0.732100 0.349500
vt 0.732100 0.363000
vt 0.715500 0.371500
vt 0.715500 0.359300
vt 0.715500 0.371500
vt 0.732100 0.363000
vt 0.732100 0.564800
vt 0.715500 0.554000
vt 0.715500 0.541800
vt 0.732100 0.551300
vt 0.756300 0.574200
vt 0.756300 0.590700
vt 0.732100 0.403300
vt 0.732100 0.457200
vt 0.715500 0.456700
vt 0.715500 0.408000
vt 0.756300 0.392200
vt 0.756300 0.458400
vt 0.701800 0.407900
vt 0.701800 0.371400
vt 0.701800 0.456500
vt 0.701800 0.553800
vt 0.701800 0.541600
vt 0.701800 0.541600
vt 0.701800 0.359300
vt 0.701800 0.505100
vt 0.701800 0.456500
vt 0.858300 0.270900
vt 0.859100 0.318500
vt 0.835500 0.462600
vt 0.830000 0.335800
vt 0.857500 0.223300
vt 0.870700 0.203100
vt 0.876100 0.211700
vt 0.872300 0.251100
vt 0.792500 0.636500
vt 0.792500 0.614600
vt 0.792500 0.614600
vt 0.830100 0.659800
vt 0.830000 0.683600
vt 0.830100 0.659800
vt 0.792500 0.373000
vt 0.792500 0.460800
vt 0.792500 0.548700
vt 0.792500 0.460800
vt 0.830300 0.588500
vt 0.835500 0.462600
vt 0.792500 0.373000
vt 0.756300 0.392200
vt 0.830000 0.335800
vt 0.792500 0.548700
vt 0.756300 0.524600
vt 0.830300 0.588500
vt 0.859700 0.649300
vt 0.860500 0.601200
vt 0.858800 0.697300
vt 0.872700 0.713300
vt 0.878500 0.702700
vt 0.874500 0.664400
vt 0.701800 0.505100
vt 0.715500 0.505300
vt 0.732100 0.511000
vt 0.732100 0.403300
vt 0.715500 0.408000
vt 0.884800 0.720500
vt 0.877000 0.725700
vt 0.872700 0.713300
vt 0.878500 0.702700
vt 0.874500 0.664400
vt 0.880000 0.679700
vt 0.858500 0.713300
vt 0.858800 0.697300
vt 0.859700 0.649300
vt 0.860500 0.601200
vt 0.860800 0.585200
vt 0.847300 0.461800
vt 0.882000 0.192000
vt 0.877400 0.234000
vt 0.874800 0.189500
vt 0.870700 0.203100
vt 0.876100 0.211700
vt 0.872300 0.251100
vt 0.857200 0.207400
vt 0.857500 0.223300
vt 0.858300 0.270900
vt 0.859100 0.318500
vt 0.859400 0.334300
vn 0.046399 0.134798 -0.989786
vn 0.077301 0.000000 -0.997008
vn -0.032100 0.000000 -0.999485
vn -0.042402 0.152108 -0.987454
vn 0.046399 0.134798 -0.989786
vn -0.042402 0.152108 -0.987454
vn -0.090404 0.688233 -0.719835
vn -0.111599 0.635497 -0.763996
vn 0.046399 0.134798 -0.989786
vn -0.111599 0.635497 -0.763996
vn -0.171600 0.576601 -0.798802
vn 0.063001 0.101702 -0.992818
vn 0.046399 0.134798 -0.989786
vn 0.063001 0.101702 -0.992818
vn 0.099306 0.000000 -0.995057
vn 0.077301 0.000000 -0.997008
vn -0.372511 -0.928028 0.000000
vn -0.185694 -0.488683 0.852471
vn -0.148204 -0.581516 0.799922
vn -0.322910 -0.946430 0.000000
vn -0.372511 -0.928028 0.000000
vn -0.322910 -0.946430 0.000000
vn -0.148204 -0.581516 -0.799922
vn -0.185694 -0.488683 -0.852471
vn -0.372511 -0.928028 0.000000
vn -0.185694 -0.488683 -0.852471
vn -0.188995 -0.461687 -0.866675
vn -0.407910 -0.913022 0.000000
vn -0.372511 -0.928028 0.000000
vn -0.407910 -0.913022 0.000000
vn -0.188995 -0.461687 0.866675
vn -0.185694 -0.488683 0.852471
vn -0.241900 -0.970301 0.000000
vn -0.095897 -0.638679 0.763475
vn -0.080600 -0.689902 0.719402
vn -0.102899 -0.994692 0.000000
vn -0.241900 -0.970301 0.000000
vn -0.102899 -0.994692 0.000000
vn -0.080600 -0.689902 -0.719402
vn -0.095897 -0.638679 -0.763475
vn -0.241900 -0.970301 0.000000
vn -0.095897 -0.638679 -0.763475
vn -0.148204 -0.581516 -0.799922
vn -0.322910 -0.946430 0.000000
vn -0.241900 -0.970301 0.000000
vn -0.322910 -0.946430 0.000000
vn -0.148204 -0.581516 0.799922
vn -0.095897 -0.638679 0.763475
vn -0.268309 0.963333 0.000000
vn -0.111599 0.635497 -0.763996
vn -0.090404 0.688233 -0.719835
vn -0.117300 0.993097 0.000000
vn -0.268309 0.963333 0.000000
vn -0.117300 0.993097 0.000000
vn -0.090404 0.688233 0.719835
vn -0.111599 0.635497 0.763996
vn -0.268309 0.963333 0.000000
vn -0.111599 0.635497 0.763996
vn -0.171600 0.576601 0.798802
vn -0.359307 0.933219 0.000000
vn -0.268309 0.963333 0.000000
vn -0.359307 0.933219 0.000000
vn -0.171600 0.576601 -0.798802
vn -0.111599 0.635497 -0.763996
vn 0.049500 -0.135099 0.989595
vn 0.077301 0.000000 0.997008
vn -0.032100 0.000000 0.999485
vn -0.040302 -0.152708 0.987449
vn 0.049500 -0.135099 0.989595
vn -0.040302 -0.152708 0.987449
vn -0.080600 -0.689902 0.719402
vn -0.095897 -0.638679 0.763475
vn 0.049500 -0.135099 0.989595
vn -0.095897 -0.638679 0.763475
vn -0.148204 -0.581516 0.799922
vn 0.067303 -0.101605 0.992546
vn 0.049500 -0.135099 0.989595
vn 0.067303 -0.101605 0.992546
vn 0.099306 0.000000 0.995057
vn 0.077301 0.000000 0.997008
vn 0.026101 -0.145404 0.989028
vn 0.107300 -0.670400 0.734200
vn -0.080600 -0.689902 0.719402
vn -0.040302 -0.152708 0.987449
vn 0.026101 -0.145404 0.989028
vn -0.040302 -0.152708 0.987449
vn -0.032100 0.000000 0.999485
vn 0.009801 0.000000 0.999952
vn 0.124404 0.992232 0.000000
vn 0.080403 0.678026 0.730628
vn -0.090404 0.688233 0.719835
vn -0.117300 0.993097 0.000000
vn 0.124404 0.992232 0.000000
vn -0.117300 0.993097 0.000000
vn -0.090404 0.688233 -0.719835
vn 0.080403 0.678026 -0.730628
vn 0.166296 -0.986076 0.000000
vn -0.102899 -0.994692 0.000000
vn -0.080600 -0.689902 0.719402
vn 0.107300 -0.670400 0.734200
vn 0.020800 0.148597 -0.988679
vn 0.080403 0.678026 -0.730628
vn -0.090404 0.688233 -0.719835
vn -0.042402 0.152108 -0.987454
vn 0.020800 0.148597 -0.988679
vn -0.042402 0.152108 -0.987454
vn -0.032100 0.000000 -0.999485
vn 0.009801 0.000000 -0.999952
vn 0.164399 0.000600 0.986394
vn 0.580702 0.249001 0.775102
vn 0.379609 -0.006700 0.925123
vn 0.050401 -0.040001 0.997928
vn 0.164399 0.000600 0.986394
vn 0.050401 -0.040001 0.997928
vn -0.188995 -0.461687 0.866675
vn -0.205305 -0.510811 0.834818
vn 0.164399 0.000600 0.986394
vn -0.205305 -0.510811 0.834818
vn -0.122897 -0.637983 0.760180
vn 0.501220 -0.158206 0.850734
vn 0.164399 0.000600 0.986394
vn 0.501220 -0.158206 0.850734
vn 0.708215 0.319007 0.629814
vn 0.580702 0.249001 0.775102
vn -0.399596 0.916691 0.000000
vn -0.203403 0.487306 -0.849211
vn -0.171600 0.576601 -0.798802
vn -0.359307 0.933219 0.000000
vn -0.399596 0.916691 0.000000
vn -0.359307 0.933219 0.000000
vn -0.171600 0.576601 0.798802
vn -0.203403 0.487306 0.849211
vn -0.399596 0.916691 0.000000
vn -0.203403 0.487306 0.849211
vn -0.185110 0.468326 0.863947
vn -0.386496 0.922291 0.000000
vn -0.399596 0.916691 0.000000
vn -0.386496 0.922291 0.000000
vn -0.185110 0.468326 -0.863947
vn -0.203403 0.487306 -0.849211
vn -0.013600 -0.066201 0.997714
vn 0.012200 0.000000 0.999926
vn 0.099306 0.000000 0.995057
vn 0.067303 -0.101605 0.992546
vn -0.013600 -0.066201 0.997714
vn 0.067303 -0.101605 0.992546
vn -0.148204 -0.581516 0.799922
vn -0.185694 -0.488683 0.852471
vn -0.013600 -0.066201 0.997714
vn -0.185694 -0.488683 0.852471
vn -0.188995 -0.461687 0.866675
vn 0.050401 -0.040001 0.997928
vn -0.013600 -0.066201 0.997714
vn 0.050401 -0.040001 0.997928
vn 0.379609 -0.006700 0.925123
vn 0.012200 0.000000 0.999926
vn -0.016401 0.066802 -0.997631
vn 0.012200 0.000000 -0.999926
vn 0.099306 0.000000 -0.995057
vn 0.063001 0.101702 -0.992818
vn -0.016401 0.066802 -0.997631
vn 0.063001 0.101702 -0.992818
vn -0.171600 0.576601 -0.798802
vn -0.203403 0.487306 -0.849211
vn -0.016401 0.066802 -0.997631
vn -0.203403 0.487306 -0.849211
vn -0.185110 0.468326 -0.863947
vn 0.046299 0.041199 -0.998078
vn -0.016401 0.066802 -0.997631
vn 0.046299 0.041199 -0.998078
vn 0.379609 -0.006700 -0.925123
vn 0.012200 0.000000 -0.999926
vn -0.013600 -0.066201 -0.997714
vn -0.185694 -0.488683 -0.852471
vn -0.148204 -0.581516 -0.799922
vn 0.067303 -0.101605 -0.992546
vn -0.013600 -0.066201 -0.997714
vn 0.067303 -0.101605 -0.992546
vn 0.099306 0.000000 -0.995057
vn 0.012200 0.000000 -0.999926
vn -0.013600 -0.066201 -0.997714
vn 0.012200 0.000000 -0.999926
vn 0.379609 -0.006700 -0.925123
vn 0.050401 -0.040001 -0.997928
vn -0.013600 -0.066201 -0.997714
vn 0.050401 -0.040001 -0.997928
vn -0.188995 -0.461687 -0.866675
vn -0.185694 -0.488683 -0.852471
vn -0.016401 0.066802 0.997631
vn -0.203403 0.487306 0.849211
vn -0.171600 0.576601 0.798802
vn 0.063001 0.101702 0.992818
vn -0.016401 0.066802 0.997631
vn 0.063001 0.101702 0.992818
vn 0.099306 0.000000 0.995057
vn 0.012200 0.000000 0.999926
vn -0.016401 0.066802 0.997631
vn 0.012200 0.000000 0.999926
vn 0.379609 -0.006700 0.925123
vn 0.046299 0.041199 0.998078
vn -0.016401 0.066802 0.997631
vn 0.046299 0.041199 0.998078
vn -0.185110 0.468326 0.863947
vn -0.203403 0.487306 0.849211
vn 0.150501 0.002000 -0.988608
vn 0.556686 -0.267193 -0.786580
vn 0.379609 -0.006700 -0.925123
vn 0.046299 0.041199 -0.998078
vn 0.150501 0.002000 -0.988608
vn 0.046299 0.041199 -0.998078
vn -0.185110 0.468326 -0.863947
vn -0.160306 0.522021 -0.837733
vn 0.150501 0.002000 -0.988608
vn -0.160306 0.522021 -0.837733
vn -0.047201 0.637117 -0.769320
vn 0.504734 0.145310 -0.850957
vn 0.150501 0.002000 -0.988608
vn 0.504734 0.145310 -0.850957
vn 0.675981 -0.338291 -0.654682
vn 0.556686 -0.267193 -0.786580
vn 0.020800 0.148597 0.988679
vn 0.009801 0.000000 0.999952
vn -0.032100 0.000000 0.999485
vn -0.042402 0.152108 0.987454
vn 0.020800 0.148597 0.988679
vn -0.042402 0.152108 0.987454
vn -0.090404 0.688233 0.719835
vn 0.080403 0.678026 0.730628
vn 0.046399 0.134798 0.989786
vn -0.111599 0.635497 0.763996
vn -0.090404 0.688233 0.719835
vn -0.042402 0.152108 0.987454
vn 0.046399 0.134798 0.989786
vn -0.042402 0.152108 0.987454
vn -0.032100 0.000000 0.999485
vn 0.077301 0.000000 0.997008
vn 0.046399 0.134798 0.989786
vn 0.077301 0.000000 0.997008
vn 0.099306 0.000000 0.995057
vn 0.063001 0.101702 0.992818
vn 0.046399 0.134798 0.989786
vn 0.063001 0.101702 0.992818
vn -0.171600 0.576601 0.798802
vn -0.111599 0.635497 0.763996
vn 0.049500 -0.135099 -0.989595
vn -0.040302 -0.152708 -0.987449
vn -0.032100 0.000000 -0.999485
vn 0.077301 0.000000 -0.997008
vn 0.049500 -0.135099 -0.989595
vn 0.077301 0.000000 -0.997008
vn 0.099306 0.000000 -0.995057
vn 0.067303 -0.101605 -0.992546
vn 0.049500 -0.135099 -0.989595
vn 0.067303 -0.101605 -0.992546
vn -0.148204 -0.581516 -0.799922
vn -0.095897 -0.638679 -0.763475
vn 0.848161 0.529738 0.000000
vn 0.075802 0.997123 0.000000
vn -0.047201 0.637117 0.769320
vn 0.504734 0.145310 0.850957
vn 0.848161 0.529738 0.000000
vn 0.504734 0.145310 0.850957
vn 0.675981 -0.338291 0.654682
vn 0.929425 -0.369010 0.000000
vn 0.848161 0.529738 0.000000
vn 0.929425 -0.369010 0.000000
vn 0.675981 -0.338291 -0.654682
vn 0.504734 0.145310 -0.850957
vn 0.848161 0.529738 0.000000
vn 0.504734 0.145310 -0.850957
vn -0.047201 0.637117 -0.769320
vn 0.075802 0.997123 0.000000
vn -0.313917 0.949451 0.000000
vn -0.160306 0.522021 -0.837733
vn -0.185110 0.468326 -0.863947
vn -0.386496 0.922291 0.000000
vn -0.313917 0.949451 0.000000
vn -0.386496 0.922291 0.000000
vn -0.185110 0.468326 0.863947
vn -0.160306 0.522021 0.837733
vn -0.313917 0.949451 0.000000
vn -0.160306 0.522021 0.837733
vn -0.047201 0.637117 0.769320
vn 0.075802 0.997123 0.000000
vn -0.313917 0.949451 0.000000
vn 0.075802 0.997123 0.000000
vn -0.047201 0.637117 -0.769320
vn -0.160306 0.522021 -0.837733
vn 0.150501 0.002000 0.988608
vn -0.160306 0.522021 0.837733
vn -0.185110 0.468326 0.863947
vn 0.046299 0.041199 0.998078
vn 0.150501 0.002000 0.988608
vn 0.046299 0.041199 0.998078
vn 0.379609 -0.006700 0.925123
vn 0.556686 -0.267193 0.786580
vn 0.150501 0.002000 0.988608
vn 0.556686 -0.267193 0.786580
vn 0.675981 -0.338291 0.654682
vn 0.504734 0.145310 0.850957
vn 0.150501 0.002000 0.988608
vn 0.504734 0.145310 0.850957
vn -0.047201 0.637117 0.769320
vn -0.160306 0.522021 0.837733
vn 0.913022 -0.407910 0.000000
vn 0.556686 -0.267193 0.786580
vn 0.379609 -0.006700 0.925123
vn 0.999857 -0.016901 0.000000
vn 0.913022 -0.407910 0.000000
vn 0.999857 -0.016901 0.000000
vn 0.379609 -0.006700 -0.925123
vn 0.556686 -0.267193 -0.786580
vn 0.913022 -0.407910 0.000000
vn 0.556686 -0.267193 -0.786580
vn 0.675981 -0.338291 -0.654682
vn 0.929425 -0.369010 0.000000
vn 0.913022 -0.407910 0.000000
vn 0.929425 -0.369010 0.000000
vn 0.675981 -0.338291 0.654682
vn 0.556686 -0.267193 0.786580
vn 0.809639 -0.586928 0.000000
vn 0.940681 0.339293 0.000000
vn 0.708215 0.319007 0.629814
vn 0.501220 -0.158206 0.850734
vn 0.809639 -0.586928 0.000000
vn 0.501220 -0.158206 0.850734
vn -0.122897 -0.637983 0.760180
vn -0.029902 -0.999553 0.000000
vn 0.809639 -0.586928 0.000000
vn -0.029902 -0.999553 0.000000
vn -0.122897 -0.637983 -0.760180
vn 0.501220 -0.158206 -0.850734
vn 0.809639 -0.586928 0.000000
vn 0.501220 -0.158206 -0.850734
vn 0.708215 0.319007 -0.629814
vn 0.940681 0.339293 0.000000
vn -0.396922 -0.917852 0.000000
vn -0.205305 -0.510811 0.834818
vn -0.188995 -0.461687 0.866675
vn -0.407910 -0.913022 0.000000
vn -0.396922 -0.917852 0.000000
vn -0.407910 -0.913022 0.000000
vn -0.188995 -0.461687 -0.866675
vn -0.205305 -0.510811 -0.834818
vn -0.396922 -0.917852 0.000000
vn -0.205305 -0.510811 -0.834818
vn -0.122897 -0.637983 -0.760180
vn -0.029902 -0.999553 0.000000
vn -0.396922 -0.917852 0.000000
vn -0.029902 -0.999553 0.000000
vn -0.122897 -0.637983 0.760180
vn -0.205305 -0.510811 0.834818
vn 0.164399 0.000600 -0.986394
vn -0.205305 -0.510811 -0.834818
vn -0.188995 -0.461687 -0.866675
vn 0.050401 -0.040001 -0.997928
vn 0.164399 0.000600 -0.986394
vn 0.050401 -0.040001 -0.997928
vn 0.379609 -0.006700 -0.925123
vn 0.580702 0.249001 -0.775102
vn 0.164399 0.000600 -0.986394
vn 0.580702 0.249001 -0.775102
vn 0.708215 0.319007 -0.629814
vn 0.501220 -0.158206 -0.850734
vn 0.164399 0.000600 -0.986394
vn 0.501220 -0.158206 -0.850734
vn -0.122897 -0.637983 -0.760180
vn -0.205305 -0.510811 -0.834818
vn 0.929391 0.369096 0.000000
vn 0.580702 0.249001 -0.775102
vn 0.379609 -0.006700 -0.925123
vn 0.999857 -0.016901 0.000000
vn 0.929391 0.369096 0.000000
vn 0.999857 -0.016901 0.000000
vn 0.379609 -0.006700 0.925123
vn 0.580702 0.249001 0.775102
vn 0.929391 0.369096 0.000000
vn 0.580702 0.249001 0.775102
vn 0.708215 0.319007 0.629814
vn 0.940681 0.339293 0.000000
vn 0.929391 0.369096 0.000000
vn 0.940681 0.339293 0.000000
vn 0.708215 0.319007 -0.629814
vn 0.580702 0.249001 -0.775102
s off
g polySurface26 polySurface23
usemtl fish:Material
f 1/1/1 49/2/2 92/3/3 42/4/4
f 1/1/5 42/4/6 70/5/7 26/6/8
f 1/1/9 26/6/10 69/7/11 24/8/12
f 1/1/13 24/8/14 78/9/15 49/2/16
f 2/10/17 36/11/18 66/12/19 22/13/20
f 2/10/21 22/13/22 67/14/23 35/15/24
f 2/10/25 35/15/26 74/16/27 31/17/28
f 2/10/29 31/17/30 73/18/31 36/11/32
f 3/19/33 28/20/34 71/21/35 94/22/36
f 3/19/37 94/22/38 95/23/39 93/24/40
f 3/19/41 93/24/42 67/14/43 22/13/44
f 3/19/45 22/13/46 66/12/47 28/20/48
f 4/25/49 26/6/50 70/5/51 30/26/52
f 4/25/53 30/26/54 72/27/55 27/28/56
f 4/25/57 27/28/58 68/29/59 25/30/60
f 4/25/61 25/30/62 69/7/63 26/6/64
f 5/31/65 48/32/66 79/33/67 41/34/68
f 5/31/69 41/34/70 71/21/71 28/20/72
f 5/31/73 28/20/74 66/12/75 39/35/76
f 5/31/77 39/35/78 77/36/79 48/32/80
f 98/37/81 97/38/82 71/21/83 41/34/84
f 98/37/85 41/34/86 79/33/87 99/39/88
f 102/40/89 101/41/90 72/27/91 30/26/92
f 102/40/93 30/26/94 70/5/95 103/42/96
f 96/43/97 94/22/98 71/21/99 97/38/100
f 104/44/101 103/42/102 70/5/103 42/4/104
f 104/44/105 42/4/106 92/3/107 105/45/108
f 6/46/109 63/47/110 80/48/111 43/49/112
f 6/46/113 43/49/114 73/18/115 62/50/116
f 6/46/117 62/50/118 86/51/119 59/52/120
f 6/46/121 59/52/122 88/53/123 63/47/124
f 7/54/125 38/55/126 69/7/127 25/30/128
f 7/54/129 25/30/130 68/29/131 37/56/132
f 7/54/133 37/56/134 75/57/135 34/58/136
f 7/54/137 34/58/138 76/59/139 38/55/140
f 8/60/141 46/61/142 77/36/143 39/35/144
f 8/60/145 39/35/146 66/12/147 36/11/148
f 8/60/149 36/11/150 73/18/151 43/49/152
f 8/60/153 43/49/154 80/48/155 46/61/156
f 9/62/157 45/63/158 78/9/159 24/8/160
f 9/62/161 24/8/162 69/7/163 38/55/164
f 9/62/165 38/55/166 76/59/167 33/64/168
f 9/62/169 33/64/170 81/65/171 45/63/172
f 10/66/173 35/15/174 67/14/175 40/67/176
f 10/66/177 40/67/178 78/9/179 45/63/180
f 10/66/181 45/63/182 81/65/183 44/68/184
f 10/66/185 44/68/186 74/16/187 35/15/188
f 11/69/189 37/56/190 68/29/191 23/70/192
f 11/69/193 23/70/194 77/36/195 46/61/196
f 11/69/197 46/61/198 80/48/199 32/71/200
f 11/69/201 32/71/202 75/57/203 37/56/204
f 12/72/205 55/73/206 81/65/207 33/64/208
f 12/72/209 33/64/210 76/59/211 54/74/212
f 12/72/213 54/74/214 83/75/215 51/76/216
f 12/72/217 51/76/218 85/77/219 55/73/220
f 100/78/221 99/39/222 79/33/223 29/79/224
f 100/78/225 29/79/226 72/27/227 101/41/228
f 13/80/229 27/28/230 72/27/231 29/79/232
f 13/80/233 29/79/234 79/33/235 48/32/236
f 13/80/237 48/32/238 77/36/239 23/70/240
f 13/80/241 23/70/242 68/29/243 27/28/244
f 91/81/245 90/82/246 92/3/247 49/2/248
f 91/81/249 49/2/250 78/9/251 40/67/252
f 91/81/253 40/67/254 67/14/255 93/24/256
f 14/83/257 52/84/258 82/85/259 50/86/260
f 14/83/261 50/86/262 84/87/263 53/88/264
f 14/83/265 53/88/266 85/77/267 51/76/268
f 14/83/269 51/76/270 83/75/271 52/84/272
f 15/89/273 54/74/274 76/59/275 34/58/276
f 15/89/277 34/58/278 75/57/279 56/90/280
f 15/89/281 56/90/282 82/85/283 52/84/284
f 15/89/285 52/84/286 83/75/287 54/74/288
f 16/91/289 56/90/290 75/57/291 32/71/292
f 16/91/293 32/71/294 80/48/295 57/92/296
f 16/91/297 57/92/298 84/87/299 50/86/300
f 16/91/301 50/86/302 82/85/303 56/90/304
f 17/93/305 57/92/306 80/48/307 47/94/308
f 17/93/309 47/94/310 81/65/311 55/73/312
f 17/93/313 55/73/314 85/77/315 53/88/316
f 17/93/317 53/88/318 84/87/319 57/92/320
f 18/95/321 61/96/322 88/53/323 59/52/324
f 18/95/325 59/52/326 86/51/327 58/97/328
f 18/95/329 58/97/330 87/98/331 60/99/332
f 18/95/333 60/99/334 89/100/335 61/96/336
f 19/101/337 62/50/338 73/18/339 31/17/340
f 19/101/341 31/17/342 74/16/343 64/102/344
f 19/101/345 64/102/346 87/98/347 58/97/348
f 19/101/349 58/97/350 86/51/351 62/50/352
f 20/103/353 64/102/354 74/16/355 44/68/356
f 20/103/357 44/68/358 81/65/359 65/104/360
f 20/103/361 65/104/362 89/100/363 60/99/364
f 20/103/365 60/99/366 87/98/367 64/102/368
f 21/105/369 65/104/370 81/65/371 47/94/372
f 21/105/373 47/94/374 80/48/375 63/47/376
f 21/105/377 63/47/378 88/53/379 61/96/380
f 21/105/381 61/96/382 89/100/383 65/104/384
