# This file uses millimeters as units for non-parametric coordinates.

mtllib puerta_candace.mtl
g default
v 5.994536 5.360088 0.969660
v 5.994535 5.360088 1.600260
v 5.994536 6.483486 0.969660
v 5.994535 6.483486 1.600260
v 6.096223 6.483486 0.969660
v 6.096223 6.483486 1.600260
v 6.096223 5.360088 0.969660
v 6.096223 5.360088 1.600260
vt 0.191800 0.057937
vt 0.781893 0.515625
vt 0.015288 0.192063
vt 0.224923 0.250000
vt 0.045993 0.500000
vt 0.224923 0.500000
vt 0.375000 0.750000
vt 0.625000 0.750000
vt 0.375000 1.000000
vt 0.625000 1.000000
vt 0.932144 0.515625
vt 0.932144 0.500000
vt 0.057675 0.057937
vt 0.057675 0.192063
vt 0.240602 0.020050
vt 0.759399 0.020050
vt 0.759399 0.979950
vt 0.240602 0.979950
vt 0.240602 0.979950
vt 0.759399 0.979950
vt 0.759399 0.020050
vt 0.240602 0.020050
vt 0.781893 0.500000
vn -1.000000 0.000000 -0.000002
vn -1.000000 0.000000 -0.000002
vn -1.000000 0.000000 -0.000002
vn -1.000000 0.000000 -0.000002
vn 0.000000 1.000000 0.000000
vn 0.000000 1.000000 0.000000
vn 0.000000 1.000000 0.000000
vn 0.000000 1.000000 0.000000
vn 1.000000 0.000000 0.000001
vn 1.000000 0.000000 0.000001
vn 1.000000 0.000000 0.000001
vn 1.000000 0.000000 0.000001
vn 0.000000 -1.000000 0.000000
vn 0.000000 -1.000000 0.000000
vn 0.000000 -1.000000 0.000000
vn 0.000000 -1.000000 0.000000
vn 0.000000 0.000000 1.000000
vn 0.000000 0.000000 1.000000
vn 0.000000 0.000000 1.000000
vn 0.000000 0.000000 1.000000
vn -0.000000 0.000000 -1.000000
vn -0.000000 0.000000 -1.000000
vn -0.000000 0.000000 -1.000000
vn -0.000000 0.000000 -1.000000
s off
g pCube83
usemtl lambert19SG
f 1/15/1 2/16/2 4/17/3 3/18/4
f 3/3/5 4/4/6 6/6/7 5/5/8
f 5/19/9 6/20/10 8/21/11 7/22/12
f 7/7/13 8/8/14 2/10/15 1/9/16
f 2/2/17 8/11/18 6/12/19 4/23/20
f 7/13/21 1/1/22 3/3/23 5/14/24
