# This file uses millimeters as units for non-parametric coordinates.

mtllib cortinas_pa_x_pos.mtl
g default
v -1.892914 6.660436 4.398762
v -2.451639 6.660436 4.406618
v -1.892080 6.660436 4.501898
v -2.450804 6.660436 4.509757
v -1.892080 6.099062 4.501898
v -2.450804 6.099062 4.509757
v -1.892914 6.099062 4.398762
v -2.451639 6.099062 4.406618
vt 1.000015 -0.000001
vt 0.848917 -0.000001
vt 0.151127 -0.000001
vt 0.000015 -0.000001
vt 0.151127 1.000000
vt 0.000015 1.000000
vt 0.848917 1.000000
vt 1.000015 1.000000
vn 0.000000 1.000000 0.000004
vn 0.000000 1.000000 0.000000
vn 0.000000 1.000000 0.000003
vn 0.000000 1.000000 0.000000
vn 0.014064 0.000000 0.999901
vn 0.014065 0.000000 0.999901
vn 0.014065 0.000000 0.999901
vn 0.014066 0.000000 0.999901
vn 0.000000 -1.000000 0.000000
vn 0.000000 -1.000000 0.000001
vn 0.000000 -1.000000 0.000004
vn 0.000000 -1.000000 0.000005
vn -0.014061 0.000000 -0.999901
vn -0.014060 0.000000 -0.999901
vn -0.014060 0.000000 -0.999901
vn -0.014060 0.000000 -0.999901
vn -0.999967 0.000000 0.008086
vn -0.999967 0.000000 0.008086
vn -0.999967 0.000000 0.008086
vn -0.999967 0.000000 0.008086
vn 0.999967 0.000000 -0.008087
vn 0.999967 0.000000 -0.008087
vn 0.999967 0.000000 -0.008087
vn 0.999967 0.000000 -0.008087
s 1
g polySurface267 polySurface74
usemtl lambert7SG
f 1/1/1 2/2/2 3/3/3
f 3/3/3 2/2/2 4/4/4
s 2
f 3/3/5 4/4/6 5/5/7
f 5/5/7 4/4/6 6/6/8
s 3
f 6/6/9 8/7/10 5/5/11
f 5/5/11 8/7/10 7/8/12
s 4
f 7/8/13 8/7/14 1/1/15
f 1/1/15 8/7/14 2/2/16
s 5
f 2/2/17 8/7/18 4/4/19
f 4/4/19 8/7/18 6/6/20
s 6
f 7/8/21 1/1/22 5/5/23
f 5/5/23 1/1/22 3/3/24
g default
v -1.814693 6.717956 -4.248044
v -2.385740 6.717956 -4.240188
v -1.813840 6.717956 -4.144907
v -2.384887 6.717956 -4.137049
v -1.813840 6.156582 -4.144907
v -2.384887 6.156582 -4.137049
v -1.814693 6.156582 -4.248044
v -2.385740 6.156582 -4.240188
vt 1.000015 -0.000001
vt 0.848917 -0.000001
vt 0.000015 -0.000001
vt 0.151127 -0.000001
vt 0.000015 1.000000
vt 0.151127 1.000000
vt 0.848917 1.000000
vt 1.000015 1.000000
vn -0.000000 1.000000 0.000001
vn 0.000000 1.000000 -0.000008
vn 0.000000 1.000000 -0.000000
vn 0.000000 1.000000 -0.000009
vn 0.013761 0.000000 0.999905
vn 0.013761 0.000000 0.999905
vn 0.013761 0.000000 0.999905
vn 0.013761 0.000000 0.999905
vn 0.000000 -1.000000 -0.000000
vn -0.000000 -1.000000 0.000001
vn -0.000000 -1.000000 0.000004
vn -0.000000 -1.000000 0.000004
vn -0.013756 0.000000 -0.999905
vn -0.013757 0.000000 -0.999905
vn -0.013757 0.000000 -0.999905
vn -0.013758 0.000000 -0.999905
vn -0.999966 0.000000 0.008265
vn -0.999966 0.000000 0.008265
vn -0.999966 0.000000 0.008265
vn -0.999966 0.000000 0.008265
vn 0.999966 0.000000 -0.008264
vn 0.999966 0.000000 -0.008264
vn 0.999966 0.000000 -0.008264
vn 0.999966 0.000000 -0.008264
s 1
g polySurface141 polySurface137
usemtl lambert7SG
f 9/9/25 10/10/26 11/12/27
f 11/12/27 10/10/26 12/11/28
s 2
f 11/12/29 12/11/30 13/14/31
f 13/14/31 12/11/30 14/13/32
s 3
f 14/13/33 16/15/34 13/14/35
f 13/14/35 16/15/34 15/16/36
s 4
f 15/16/37 16/15/38 9/9/39
f 9/9/39 16/15/38 10/10/40
s 5
f 10/10/41 16/15/42 12/11/43
f 12/11/43 16/15/42 14/13/44
s 6
f 15/16/45 9/9/46 13/14/47
f 13/14/47 9/9/46 11/12/48
