# This file uses millimeters as units for non-parametric coordinates.

mtllib cortina_pb_z_pos.mtl
g default
v 11.572888 2.550681 3.902645
v 11.563261 2.550681 2.999865
v 11.489623 2.550681 3.903533
v 11.479994 2.550681 3.000753
v 11.489623 1.179470 3.903533
v 11.479994 1.179470 3.000753
v 11.572888 1.179470 3.902645
v 11.563261 1.179470 2.999865
vt 1.000015 -0.000001
vt 0.848917 -0.000001
vt 0.000015 -0.000001
vt 0.151127 -0.000001
vt 0.000015 1.000000
vt 0.151127 1.000000
vt 0.848917 1.000000
vt 1.000015 1.000000
vn 0.000000 1.000000 0.000000
vn -0.000000 1.000000 -0.000001
vn -0.000000 1.000000 -0.000000
vn -0.000000 1.000000 -0.000002
vn -0.999943 0.000000 0.010665
vn -0.999943 0.000000 0.010665
vn -0.999943 0.000000 0.010665
vn -0.999943 0.000000 0.010665
vn 0.000000 -1.000000 0.000003
vn 0.000000 -1.000000 0.000000
vn 0.000000 -1.000000 0.000003
vn -0.000000 -1.000000 0.000000
vn 0.999943 0.000000 -0.010663
vn 0.999943 0.000000 -0.010663
vn 0.999943 0.000000 -0.010663
vn 0.999943 0.000000 -0.010663
vn -0.010663 0.000000 -0.999943
vn -0.010663 0.000000 -0.999943
vn -0.010663 0.000000 -0.999943
vn -0.010663 0.000000 -0.999943
vn 0.010663 0.000000 0.999943
vn 0.010663 0.000000 0.999943
vn 0.010663 0.000000 0.999943
vn 0.010663 0.000000 0.999943
s 1
g polySurface84 polySurface15
usemtl lambert7SG
f 1/1/1 2/2/2 3/4/3
f 3/4/3 2/2/2 4/3/4
s 2
f 3/4/5 4/3/6 5/6/7
f 5/6/7 4/3/6 6/5/8
s 3
f 5/6/9 6/5/10 7/8/11
f 7/8/11 6/5/10 8/7/12
s 4
f 7/8/13 8/7/14 1/1/15
f 1/1/15 8/7/14 2/2/16
s 5
f 2/2/17 8/7/18 4/3/19
f 4/3/19 8/7/18 6/5/20
s 6
f 7/8/21 1/1/22 5/6/23
f 5/6/23 1/1/22 3/4/24
