# This file uses millimeters as units for non-parametric coordinates.

mtllib cortinas_pa_2_x_neg.mtl
g default
v 7.678801 6.236801 -2.742216
v 8.004383 6.236801 -2.749395
v 7.678314 6.236801 -2.836465
v 8.003897 6.236801 -2.843647
v 7.678314 5.866930 -2.836465
v 8.003897 5.866930 -2.843647
v 7.678801 5.866930 -2.742216
v 8.004383 5.866930 -2.749395
vt 1.000015 -0.000001
vt 0.848917 -0.000001
vt 0.000015 -0.000001
vt 0.151127 -0.000001
vt 0.000015 1.000000
vt 0.151127 1.000000
vt 0.848917 1.000000
vt 1.000015 1.000000
vn -0.000000 1.000000 0.000000
vn 0.000000 1.000000 -0.000013
vn 0.000000 1.000000 -0.000003
vn 0.000000 1.000000 -0.000016
vn -0.022054 0.000000 -0.999757
vn -0.022054 0.000000 -0.999757
vn -0.022054 0.000000 -0.999757
vn -0.022054 0.000000 -0.999757
vn 0.000000 -1.000000 -0.000000
vn 0.000000 -1.000000 -0.000000
vn 0.000000 -1.000000 -0.000001
vn 0.000000 -1.000000 -0.000001
vn 0.022046 0.000000 0.999757
vn 0.022045 0.000000 0.999757
vn 0.022045 0.000000 0.999757
vn 0.022044 0.000000 0.999757
vn 0.999987 0.000000 -0.005155
vn 0.999987 0.000000 -0.005155
vn 0.999987 0.000000 -0.005155
vn 0.999987 0.000000 -0.005155
vn -0.999987 0.000000 0.005160
vn -0.999987 0.000000 0.005160
vn -0.999987 0.000000 0.005160
vn -0.999987 0.000000 0.005160
s 1
g polySurface149 polySurface147
usemtl lambert7SG
f 1/1/1 2/2/2 3/4/3
f 3/4/3 2/2/2 4/3/4
s 2
f 3/4/5 4/3/6 5/6/7
f 5/6/7 4/3/6 6/5/8
s 3
f 6/5/9 8/7/10 5/6/11
f 5/6/11 8/7/10 7/8/12
s 4
f 7/8/13 8/7/14 1/1/15
f 1/1/15 8/7/14 2/2/16
s 5
f 2/2/17 8/7/18 4/3/19
f 4/3/19 8/7/18 6/5/20
s 6
f 7/8/21 1/1/22 5/6/23
f 5/6/23 1/1/22 3/4/24
g default
v 7.678800 6.231120 4.598937
v 8.004383 6.231120 4.594170
v 7.678314 6.231120 4.536354
v 8.003897 6.231120 4.531585
v 7.678314 5.861248 4.536354
v 8.003897 5.861248 4.531585
v 7.678800 5.861248 4.598937
v 8.004383 5.861248 4.594170
vt 1.000015 -0.000001
vt 0.848917 -0.000001
vt 0.000015 -0.000001
vt 0.151127 -0.000001
vt 0.000015 1.000000
vt 0.151127 1.000000
vt 0.848917 1.000000
vt 1.000015 1.000000
vn 0.000000 1.000000 0.000016
vn 0.000000 1.000000 0.000002
vn 0.000000 1.000000 0.000014
vn 0.000000 1.000000 0.000000
vn -0.014645 0.000000 -0.999893
vn -0.014645 0.000000 -0.999893
vn -0.014645 0.000000 -0.999893
vn -0.014645 0.000000 -0.999893
vn 0.000000 -1.000000 0.000000
vn 0.000000 -1.000000 0.000000
vn 0.000000 -1.000000 0.000001
vn 0.000000 -1.000000 0.000001
vn 0.014641 0.000000 0.999893
vn 0.014639 0.000000 0.999893
vn 0.014639 0.000000 0.999893
vn 0.014637 0.000000 0.999893
vn 0.999970 0.000000 -0.007771
vn 0.999970 0.000000 -0.007771
vn 0.999970 0.000000 -0.007771
vn 0.999970 0.000000 -0.007771
vn -0.999970 0.000000 0.007764
vn -0.999970 0.000000 0.007764
vn -0.999970 0.000000 0.007764
vn -0.999970 0.000000 0.007764
s 1
g polySurface171 polySurface132
usemtl lambert7SG
f 9/9/25 10/10/26 11/12/27
f 11/12/27 10/10/26 12/11/28
s 2
f 11/12/29 12/11/30 13/14/31
f 13/14/31 12/11/30 14/13/32
s 3
f 14/13/33 16/15/34 13/14/35
f 13/14/35 16/15/34 15/16/36
s 4
f 15/16/37 16/15/38 9/9/39
f 9/9/39 16/15/38 10/10/40
s 5
f 10/10/41 16/15/42 12/11/43
f 12/11/43 16/15/42 14/13/44
s 6
f 15/16/45 9/9/46 13/14/47
f 13/14/47 9/9/46 11/12/48
