# This file uses millimeters as units for non-parametric coordinates.

mtllib lampara_phineas.mtl
g default
v -1.318801 8.020043 -1.136808
v -1.359509 8.020043 -1.235087
v -1.457788 8.020043 -1.275796
v -1.556068 8.020043 -1.235087
v -1.596776 8.020043 -1.136808
v -1.556068 8.020043 -1.038528
v -1.457788 8.020043 -0.997820
v -1.359509 8.020043 -1.038528
v -1.318801 8.066372 -1.136808
v -1.359509 8.066372 -1.235087
v -1.457788 8.066372 -1.275796
v -1.556068 8.066372 -1.235087
v -1.596776 8.066372 -1.136808
v -1.556068 8.066372 -1.038528
v -1.457788 8.066372 -0.997820
v -1.359509 8.066372 -1.038528
v -1.318801 8.112702 -1.136808
v -1.359509 8.112702 -1.235087
v -1.457788 8.112702 -1.275796
v -1.556068 8.112702 -1.235087
v -1.596776 8.112702 -1.136808
v -1.556068 8.112702 -1.038528
v -1.457788 8.112702 -0.997820
v -1.359509 8.112702 -1.038528
v -1.318801 8.159031 -1.136808
v -1.359509 8.159031 -1.235087
v -1.457788 8.159031 -1.275796
v -1.556068 8.159031 -1.235087
v -1.596776 8.159031 -1.136808
v -1.556068 8.159031 -1.038528
v -1.457788 8.159031 -0.997820
v -1.359509 8.159031 -1.038528
v -1.318801 8.205360 -1.136808
v -1.359509 8.205360 -1.235087
v -1.457788 8.205360 -1.275796
v -1.556068 8.205360 -1.235087
v -1.596776 8.205360 -1.136808
v -1.556068 8.205360 -1.038528
v -1.457788 8.205360 -0.997820
v -1.359509 8.205360 -1.038528
v -1.318801 8.251690 -1.136808
v -1.359509 8.251690 -1.235087
v -1.457788 8.251690 -1.275796
v -1.556068 8.251690 -1.235087
v -1.596776 8.251690 -1.136808
v -1.556068 8.251690 -1.038528
v -1.457788 8.251690 -0.997820
v -1.359509 8.251690 -1.038528
v -1.318801 8.298019 -1.136808
v -1.359509 8.298019 -1.235087
v -1.457788 8.298019 -1.275796
v -1.556068 8.298019 -1.235087
v -1.596776 8.298019 -1.136808
v -1.556068 8.298019 -1.038528
v -1.457788 8.298019 -0.997820
v -1.359509 8.298019 -1.038528
v -1.179813 8.298019 -1.136808
v -1.261230 8.298019 -1.333366
v -1.457788 8.298019 -1.414784
v -1.654347 8.298019 -1.333366
v -1.735764 8.298019 -1.136808
v -1.654347 8.298019 -0.940249
v -1.457788 8.298019 -0.858832
v -1.261230 8.298019 -0.940249
v -1.179813 8.251690 -1.136808
v -1.261230 8.251690 -1.333366
v -1.457789 8.251690 -1.414784
v -1.654347 8.251690 -1.333366
v -1.735764 8.251690 -1.136808
v -1.654347 8.251690 -0.940249
v -1.457789 8.251690 -0.858832
v -1.261230 8.251690 -0.940249
v -1.066578 8.224233 -1.136808
v -1.181160 8.224233 -1.413436
v -1.457789 8.224233 -1.528019
v -1.734417 8.224233 -1.413436
v -1.848999 8.224233 -1.136808
v -1.734417 8.224233 -0.860179
v -1.457789 8.224233 -0.745596
v -1.181160 8.224233 -0.860179
v -1.066578 8.159031 -1.136808
v -1.181160 8.159031 -1.413436
v -1.457788 8.159031 -1.528019
v -1.734417 8.159031 -1.413436
v -1.848999 8.159031 -1.136808
v -1.734417 8.159031 -0.860179
v -1.457788 8.159031 -0.745596
v -1.181160 8.159031 -0.860179
v -1.066578 8.093829 -1.136808
v -1.181160 8.093829 -1.413436
v -1.457788 8.093829 -1.528019
v -1.734417 8.093829 -1.413436
v -1.848999 8.093829 -1.136808
v -1.734417 8.093829 -0.860179
v -1.457788 8.093829 -0.745596
v -1.181160 8.093829 -0.860179
v -1.179813 8.066372 -1.136808
v -1.261230 8.066372 -1.333366
v -1.457788 8.066372 -1.414784
v -1.654347 8.066372 -1.333366
v -1.735764 8.066372 -1.136808
v -1.654347 8.066372 -0.940249
v -1.457788 8.066372 -0.858832
v -1.261230 8.066372 -0.940249
v -1.179813 8.020043 -1.136808
v -1.261230 8.020043 -1.333366
v -1.457788 8.020043 -1.414784
v -1.654347 8.020043 -1.333366
v -1.735764 8.020043 -1.136808
v -1.654347 8.020043 -0.940249
v -1.457788 8.020043 -0.858832
v -1.261230 8.020043 -0.940249
vt 0.000000 1.000000
vt 0.125000 1.000000
vt 0.250000 1.000000
vt 0.375000 1.000000
vt 0.500000 1.000000
vt 0.625000 1.000000
vt 0.750000 1.000000
vt 0.875000 1.000000
vt 1.000000 1.000000
vt 0.000000 0.928571
vt 0.125000 0.928571
vt 0.250000 0.928571
vt 0.375000 0.928571
vt 0.500000 0.928571
vt 0.625000 0.928571
vt 0.750000 0.928571
vt 0.875000 0.928571
vt 1.000000 0.928571
vt 0.000000 0.857143
vt 0.125000 0.857143
vt 0.250000 0.857143
vt 0.375000 0.857143
vt 0.500000 0.857143
vt 0.625000 0.857143
vt 0.750000 0.857143
vt 0.875000 0.857143
vt 1.000000 0.857143
vt 0.000000 0.785714
vt 0.125000 0.785714
vt 0.250000 0.785714
vt 0.375000 0.785714
vt 0.500000 0.785714
vt 0.625000 0.785714
vt 0.750000 0.785714
vt 0.875000 0.785714
vt 1.000000 0.785714
vt 0.000000 0.714286
vt 0.125000 0.714286
vt 0.250000 0.714286
vt 0.375000 0.714286
vt 0.500000 0.714286
vt 0.625000 0.714286
vt 0.750000 0.714286
vt 0.875000 0.714286
vt 1.000000 0.714286
vt 0.000000 0.642857
vt 0.125000 0.642857
vt 0.250000 0.642857
vt 0.375000 0.642857
vt 0.500000 0.642857
vt 0.625000 0.642857
vt 0.750000 0.642857
vt 0.875000 0.642857
vt 1.000000 0.642857
vt 0.000000 0.571428
vt 0.125000 0.571428
vt 0.250000 0.571428
vt 0.375000 0.571428
vt 0.500000 0.571428
vt 0.625000 0.571428
vt 0.750000 0.571428
vt 0.875000 0.571428
vt 1.000000 0.571428
vt 0.000000 0.500000
vt 0.125000 0.500000
vt 0.250000 0.500000
vt 0.375000 0.500000
vt 0.500000 0.500000
vt 0.625000 0.500000
vt 0.750000 0.500000
vt 0.875000 0.500000
vt 1.000000 0.500000
vt 0.000000 0.428571
vt 0.125000 0.428571
vt 0.250000 0.428571
vt 0.375000 0.428571
vt 0.500000 0.428571
vt 0.625000 0.428571
vt 0.750000 0.428571
vt 0.875000 0.428571
vt 1.000000 0.428571
vt 0.000000 0.357143
vt 0.125000 0.357143
vt 0.250000 0.357143
vt 0.375000 0.357143
vt 0.500000 0.357143
vt 0.625000 0.357143
vt 0.750000 0.357143
vt 0.875000 0.357143
vt 1.000000 0.357143
vt 0.000000 0.285714
vt 0.125000 0.285714
vt 0.250000 0.285714
vt 0.375000 0.285714
vt 0.500000 0.285714
vt 0.625000 0.285714
vt 0.750000 0.285714
vt 0.875000 0.285714
vt 1.000000 0.285714
vt 0.000000 0.214286
vt 0.125000 0.214286
vt 0.250000 0.214286
vt 0.375000 0.214286
vt 0.500000 0.214286
vt 0.625000 0.214286
vt 0.750000 0.214286
vt 0.875000 0.214286
vt 1.000000 0.214286
vt 0.000000 0.142857
vt 0.125000 0.142857
vt 0.250000 0.142857
vt 0.375000 0.142857
vt 0.500000 0.142857
vt 0.625000 0.142857
vt 0.750000 0.142857
vt 0.875000 0.142857
vt 1.000000 0.142857
vt 0.000000 0.071428
vt 0.125000 0.071428
vt 0.250000 0.071428
vt 0.375000 0.071428
vt 0.500000 0.071428
vt 0.625000 0.071428
vt 0.750000 0.071428
vt 0.875000 0.071428
vt 1.000000 0.071428
vt 0.000000 -0.000000
vt 0.125000 -0.000000
vt 0.250000 -0.000000
vt 0.375000 -0.000000
vt 0.500000 -0.000000
vt 0.625000 -0.000000
vt 0.750000 -0.000000
vt 0.875000 -0.000000
vt 1.000000 -0.000000
vn -0.923880 0.000000 0.382683
vn -0.923880 0.000000 0.382683
vn -0.923880 0.000000 0.382683
vn -0.923880 0.000000 0.382683
vn -0.382683 0.000000 0.923880
vn -0.382683 0.000000 0.923879
vn -0.382683 0.000000 0.923880
vn -0.382683 0.000000 0.923880
vn 0.382683 0.000000 0.923880
vn 0.382683 0.000000 0.923880
vn 0.382683 0.000000 0.923880
vn 0.382683 0.000000 0.923880
vn 0.923880 0.000000 0.382683
vn 0.923880 0.000000 0.382683
vn 0.923880 0.000000 0.382683
vn 0.923880 0.000000 0.382683
vn 0.923880 0.000000 -0.382683
vn 0.923880 0.000000 -0.382683
vn 0.923880 0.000000 -0.382683
vn 0.923880 0.000000 -0.382683
vn 0.382683 0.000000 -0.923880
vn 0.382683 0.000000 -0.923879
vn 0.382683 0.000000 -0.923880
vn 0.382683 0.000000 -0.923880
vn -0.382683 0.000000 -0.923880
vn -0.382683 0.000000 -0.923880
vn -0.382683 0.000000 -0.923880
vn -0.382683 0.000000 -0.923880
vn -0.923880 0.000000 -0.382683
vn -0.923880 0.000000 -0.382683
vn -0.923880 0.000000 -0.382683
vn -0.923880 0.000000 -0.382683
vn -0.923880 0.000000 0.382683
vn -0.923880 0.000000 0.382683
vn -0.382683 0.000000 0.923880
vn -0.382683 0.000000 0.923880
vn 0.382683 0.000000 0.923880
vn 0.382683 0.000000 0.923880
vn 0.923880 0.000000 0.382683
vn 0.923880 0.000000 0.382683
vn 0.923880 0.000000 -0.382683
vn 0.923880 0.000000 -0.382683
vn 0.382683 0.000000 -0.923880
vn 0.382683 0.000000 -0.923880
vn -0.382683 0.000000 -0.923880
vn -0.382683 0.000000 -0.923880
vn -0.923880 0.000000 -0.382683
vn -0.923880 0.000000 -0.382683
vn -0.923880 0.000000 0.382683
vn -0.923880 0.000000 0.382683
vn -0.382683 0.000000 0.923880
vn -0.382683 0.000000 0.923880
vn 0.382683 0.000000 0.923880
vn 0.382683 0.000000 0.923880
vn 0.923880 0.000000 0.382683
vn 0.923880 0.000000 0.382683
vn 0.923880 0.000000 -0.382683
vn 0.923880 0.000000 -0.382683
vn 0.382683 0.000000 -0.923880
vn 0.382683 0.000000 -0.923880
vn -0.382683 0.000000 -0.923880
vn -0.382683 0.000000 -0.923880
vn -0.923880 0.000000 -0.382683
vn -0.923880 0.000000 -0.382683
vn -0.923880 0.000000 0.382683
vn -0.923880 0.000000 0.382683
vn -0.382683 0.000000 0.923880
vn -0.382683 0.000000 0.923880
vn 0.382683 0.000000 0.923880
vn 0.382683 0.000000 0.923880
vn 0.923880 0.000000 0.382683
vn 0.923880 0.000000 0.382683
vn 0.923880 0.000000 -0.382683
vn 0.923880 0.000000 -0.382683
vn 0.382683 0.000000 -0.923880
vn 0.382683 0.000000 -0.923880
vn -0.382683 0.000000 -0.923880
vn -0.382683 0.000000 -0.923880
vn -0.923880 0.000000 -0.382683
vn -0.923880 0.000000 -0.382683
vn -0.923880 0.000000 0.382683
vn -0.923880 0.000000 0.382683
vn -0.382683 0.000000 0.923880
vn -0.382683 0.000000 0.923880
vn 0.382683 0.000000 0.923880
vn 0.382683 0.000000 0.923880
vn 0.923880 0.000000 0.382683
vn 0.923880 0.000000 0.382683
vn 0.923880 0.000000 -0.382683
vn 0.923880 0.000000 -0.382683
vn 0.382683 0.000000 -0.923880
vn 0.382683 0.000000 -0.923880
vn -0.382683 0.000000 -0.923880
vn -0.382683 0.000000 -0.923880
vn -0.923880 0.000000 -0.382683
vn -0.923880 0.000000 -0.382683
vn -0.923880 0.000000 0.382683
vn -0.923880 0.000000 0.382683
vn -0.382683 0.000000 0.923880
vn -0.382683 0.000000 0.923880
vn 0.382683 0.000000 0.923880
vn 0.382684 0.000000 0.923879
vn 0.923880 0.000000 0.382683
vn 0.923880 0.000000 0.382683
vn 0.923880 0.000000 -0.382683
vn 0.923880 0.000000 -0.382683
vn 0.382683 0.000000 -0.923880
vn 0.382683 0.000000 -0.923880
vn -0.382683 0.000000 -0.923880
vn -0.382684 0.000000 -0.923879
vn -0.923880 0.000000 -0.382683
vn -0.923880 0.000000 -0.382683
vn 0.000000 1.000000 -0.000000
vn 0.000000 1.000000 -0.000000
vn 0.000000 1.000000 -0.000000
vn 0.000000 1.000000 0.000000
vn 0.000000 1.000000 0.000000
vn 0.000000 1.000000 0.000000
vn 0.000000 1.000000 -0.000000
vn 0.000000 1.000000 -0.000000
vn 0.000000 1.000000 0.000000
vn 0.000000 1.000000 -0.000000
vn 0.000000 1.000000 0.000000
vn 0.000000 1.000000 0.000000
vn 0.000000 1.000000 0.000000
vn 0.000000 1.000000 0.000000
vn 0.000000 1.000000 0.000000
vn 0.000000 1.000000 0.000000
vn 0.923880 0.000001 -0.382683
vn 0.923879 0.000000 -0.382683
vn 0.486174 0.850341 -0.201380
vn 0.433694 0.882971 -0.179642
vn 0.382683 -0.000001 -0.923880
vn 0.382683 0.000000 -0.923880
vn 0.201380 0.850341 -0.486175
vn 0.179641 0.882972 -0.433693
vn -0.382683 0.000001 -0.923880
vn -0.382683 -0.000000 -0.923880
vn -0.201380 0.850341 -0.486174
vn -0.179641 0.882972 -0.433693
vn -0.923880 0.000002 -0.382683
vn -0.923880 0.000000 -0.382683
vn -0.486176 0.850341 -0.201381
vn -0.433693 0.882972 -0.179641
vn -0.923880 0.000001 0.382683
vn -0.923880 0.000001 0.382683
vn -0.486174 0.850342 0.201380
vn -0.433694 0.882971 0.179642
vn -0.382683 -0.000000 0.923880
vn -0.382683 0.000001 0.923880
vn -0.201380 0.850341 0.486175
vn -0.179641 0.882972 0.433693
vn 0.382683 0.000000 0.923880
vn 0.382683 -0.000000 0.923880
vn 0.201380 0.850341 0.486175
vn 0.179641 0.882972 0.433693
vn 0.923880 0.000000 0.382683
vn 0.923880 0.000001 0.382683
vn 0.486176 0.850340 0.201381
vn 0.433693 0.882972 0.179641
vn 0.728286 0.615303 -0.301665
vn 0.679444 0.677607 -0.281434
vn 0.301665 0.615304 -0.728285
vn 0.281434 0.677607 -0.679443
vn -0.301665 0.615303 -0.728286
vn -0.281434 0.677607 -0.679444
vn -0.728286 0.615303 -0.301665
vn -0.679444 0.677607 -0.281433
vn -0.728286 0.615303 0.301665
vn -0.679444 0.677607 0.281434
vn -0.301665 0.615304 0.728285
vn -0.281434 0.677607 0.679443
vn 0.301665 0.615303 0.728286
vn 0.281434 0.677607 0.679443
vn 0.728286 0.615303 0.301665
vn 0.679444 0.677607 0.281433
vn 0.923880 0.000000 -0.382682
vn 0.923880 0.000000 -0.382682
vn 0.382683 0.000000 -0.923880
vn 0.382683 0.000000 -0.923880
vn -0.382683 -0.000000 -0.923880
vn -0.382682 -0.000000 -0.923880
vn -0.923880 0.000000 -0.382682
vn -0.923880 0.000000 -0.382682
vn -0.923880 0.000000 0.382682
vn -0.923880 0.000000 0.382682
vn -0.382682 -0.000000 0.923880
vn -0.382683 0.000000 0.923880
vn 0.382683 0.000000 0.923880
vn 0.382683 0.000000 0.923880
vn 0.923880 0.000000 0.382682
vn 0.923880 0.000000 0.382682
vn 0.679444 -0.677607 -0.281433
vn 0.728286 -0.615303 -0.301665
vn 0.281434 -0.677607 -0.679444
vn 0.301665 -0.615303 -0.728286
vn -0.281434 -0.677607 -0.679443
vn -0.301665 -0.615304 -0.728285
vn -0.679444 -0.677607 -0.281434
vn -0.728286 -0.615303 -0.301665
vn -0.679444 -0.677607 0.281433
vn -0.728286 -0.615303 0.301665
vn -0.281434 -0.677607 0.679444
vn -0.301665 -0.615303 0.728286
vn 0.281434 -0.677607 0.679443
vn 0.301665 -0.615304 0.728285
vn 0.679444 -0.677607 0.281434
vn 0.728286 -0.615303 0.301665
vn 0.433693 -0.882972 -0.179641
vn 0.486176 -0.850340 -0.201381
vn 0.179641 -0.882972 -0.433693
vn 0.201380 -0.850341 -0.486174
vn -0.179641 -0.882972 -0.433693
vn -0.201380 -0.850341 -0.486175
vn -0.433694 -0.882971 -0.179642
vn -0.486174 -0.850342 -0.201380
vn -0.433693 -0.882972 0.179641
vn -0.486176 -0.850340 0.201381
vn -0.179641 -0.882972 0.433693
vn -0.201380 -0.850341 0.486174
vn 0.179641 -0.882972 0.433693
vn 0.201380 -0.850341 0.486175
vn 0.433694 -0.882971 0.179642
vn 0.486174 -0.850341 0.201380
vn 0.923880 0.000000 -0.382683
vn 0.923880 0.000000 -0.382683
vn 0.382683 0.000000 -0.923880
vn 0.382683 0.000000 -0.923880
vn -0.382683 0.000000 -0.923880
vn -0.382684 0.000000 -0.923879
vn -0.923880 0.000000 -0.382683
vn -0.923880 0.000000 -0.382683
vn -0.923880 0.000000 0.382683
vn -0.923880 0.000000 0.382683
vn -0.382683 0.000000 0.923880
vn -0.382683 0.000000 0.923880
vn 0.382683 0.000000 0.923880
vn 0.382684 0.000000 0.923879
vn 0.923880 0.000000 0.382683
vn 0.923880 0.000000 0.382683
vn 0.000000 -1.000000 -0.000000
vn 0.000000 -1.000000 0.000000
vn 0.000000 -1.000000 -0.000000
vn 0.000000 -1.000000 0.000000
vn 0.000000 -1.000000 0.000000
vn 0.000000 -1.000000 0.000000
vn 0.000000 -1.000000 -0.000000
vn 0.000000 -1.000000 -0.000000
vn 0.000000 -1.000000 -0.000000
vn 0.000000 -1.000000 -0.000000
vn 0.000000 -1.000000 0.000000
vn 0.000000 -1.000000 0.000000
vn 0.000000 -1.000000 0.000000
vn 0.000000 -1.000000 0.000000
vn 0.000000 -1.000000 0.000000
vn 0.000000 -1.000000 0.000000
s 1
g pPipe1
usemtl lambert15SG
f 2/2/1 1/1/2 10/11/3
f 10/11/3 1/1/2 9/10/4
s 2
f 3/3/5 2/2/6 11/12/7
f 11/12/7 2/2/6 10/11/8
s 3
f 4/4/9 3/3/10 12/13/11
f 12/13/11 3/3/10 11/12/12
s 4
f 5/5/13 4/4/14 13/14/15
f 13/14/15 4/4/14 12/13/16
s 5
f 6/6/17 5/5/18 14/15/19
f 14/15/19 5/5/18 13/14/20
s 6
f 7/7/21 6/6/22 15/16/23
f 15/16/23 6/6/22 14/15/24
s 7
f 8/8/25 7/7/26 16/17/27
f 16/17/27 7/7/26 15/16/28
s 8
f 1/9/29 8/8/30 9/18/31
f 9/18/31 8/8/30 16/17/32
s 1
f 10/11/3 9/10/4 18/20/33
f 18/20/33 9/10/4 17/19/34
s 2
f 11/12/7 10/11/8 19/21/35
f 19/21/35 10/11/8 18/20/36
s 3
f 12/13/11 11/12/12 20/22/37
f 20/22/37 11/12/12 19/21/38
s 4
f 13/14/15 12/13/16 21/23/39
f 21/23/39 12/13/16 20/22/40
s 5
f 14/15/19 13/14/20 22/24/41
f 22/24/41 13/14/20 21/23/42
s 6
f 15/16/23 14/15/24 23/25/43
f 23/25/43 14/15/24 22/24/44
s 7
f 16/17/27 15/16/28 24/26/45
f 24/26/45 15/16/28 23/25/46
s 8
f 9/18/31 16/17/32 17/27/47
f 17/27/47 16/17/32 24/26/48
s 1
f 18/20/33 17/19/34 26/29/49
f 26/29/49 17/19/34 25/28/50
s 2
f 19/21/35 18/20/36 27/30/51
f 27/30/51 18/20/36 26/29/52
s 3
f 20/22/37 19/21/38 28/31/53
f 28/31/53 19/21/38 27/30/54
s 4
f 21/23/39 20/22/40 29/32/55
f 29/32/55 20/22/40 28/31/56
s 5
f 22/24/41 21/23/42 30/33/57
f 30/33/57 21/23/42 29/32/58
s 6
f 23/25/43 22/24/44 31/34/59
f 31/34/59 22/24/44 30/33/60
s 7
f 24/26/45 23/25/46 32/35/61
f 32/35/61 23/25/46 31/34/62
s 8
f 17/27/47 24/26/48 25/36/63
f 25/36/63 24/26/48 32/35/64
s 1
f 26/29/49 25/28/50 34/38/65
f 34/38/65 25/28/50 33/37/66
s 2
f 27/30/51 26/29/52 35/39/67
f 35/39/67 26/29/52 34/38/68
s 3
f 28/31/53 27/30/54 36/40/69
f 36/40/69 27/30/54 35/39/70
s 4
f 29/32/55 28/31/56 37/41/71
f 37/41/71 28/31/56 36/40/72
s 5
f 30/33/57 29/32/58 38/42/73
f 38/42/73 29/32/58 37/41/74
s 6
f 31/34/59 30/33/60 39/43/75
f 39/43/75 30/33/60 38/42/76
s 7
f 32/35/61 31/34/62 40/44/77
f 40/44/77 31/34/62 39/43/78
s 8
f 25/36/63 32/35/64 33/45/79
f 33/45/79 32/35/64 40/44/80
s 1
f 34/38/65 33/37/66 42/47/81
f 42/47/81 33/37/66 41/46/82
s 2
f 35/39/67 34/38/68 43/48/83
f 43/48/83 34/38/68 42/47/84
s 3
f 36/40/69 35/39/70 44/49/85
f 44/49/85 35/39/70 43/48/86
s 4
f 37/41/71 36/40/72 45/50/87
f 45/50/87 36/40/72 44/49/88
s 5
f 38/42/73 37/41/74 46/51/89
f 46/51/89 37/41/74 45/50/90
s 6
f 39/43/75 38/42/76 47/52/91
f 47/52/91 38/42/76 46/51/92
s 7
f 40/44/77 39/43/78 48/53/93
f 48/53/93 39/43/78 47/52/94
s 8
f 33/45/79 40/44/80 41/54/95
f 41/54/95 40/44/80 48/53/96
s 1
f 42/47/81 41/46/82 50/56/97
f 50/56/97 41/46/82 49/55/98
s 2
f 43/48/83 42/47/84 51/57/99
f 51/57/99 42/47/84 50/56/100
s 3
f 44/49/85 43/48/86 52/58/101
f 52/58/101 43/48/86 51/57/102
s 4
f 45/50/87 44/49/88 53/59/103
f 53/59/103 44/49/88 52/58/104
s 5
f 46/51/89 45/50/90 54/60/105
f 54/60/105 45/50/90 53/59/106
s 6
f 47/52/91 46/51/92 55/61/107
f 55/61/107 46/51/92 54/60/108
s 7
f 48/53/93 47/52/94 56/62/109
f 56/62/109 47/52/94 55/61/110
s 8
f 41/54/95 48/53/96 49/63/111
f 49/63/111 48/53/96 56/62/112
s 9
f 50/56/113 49/55/114 58/65/115
f 58/65/115 49/55/114 57/64/116
f 51/57/117 50/56/113 59/66/118
f 59/66/118 50/56/113 58/65/115
f 52/58/119 51/57/117 60/67/120
f 60/67/120 51/57/117 59/66/118
f 53/59/121 52/58/119 61/68/122
f 61/68/122 52/58/119 60/67/120
f 54/60/123 53/59/121 62/69/124
f 62/69/124 53/59/121 61/68/122
f 55/61/125 54/60/123 63/70/126
f 63/70/126 54/60/123 62/69/124
f 56/62/127 55/61/125 64/71/128
f 64/71/128 55/61/125 63/70/126
f 49/63/114 56/62/127 57/72/116
f 57/72/116 56/62/127 64/71/128
s 10
f 58/65/129 57/64/130 66/74/131
f 66/74/131 57/64/130 65/73/132
s 11
f 59/66/133 58/65/134 67/75/135
f 67/75/135 58/65/134 66/74/136
s 12
f 60/67/137 59/66/138 68/76/139
f 68/76/139 59/66/138 67/75/140
s 13
f 61/68/141 60/67/142 69/77/143
f 69/77/143 60/67/142 68/76/144
s 14
f 62/69/145 61/68/146 70/78/147
f 70/78/147 61/68/146 69/77/148
s 15
f 63/70/149 62/69/150 71/79/151
f 71/79/151 62/69/150 70/78/152
s 16
f 64/71/153 63/70/154 72/80/155
f 72/80/155 63/70/154 71/79/156
s 17
f 57/72/157 64/71/158 65/81/159
f 65/81/159 64/71/158 72/80/160
s 10
f 66/74/131 65/73/132 74/83/161
f 74/83/161 65/73/132 73/82/162
s 11
f 67/75/135 66/74/136 75/84/163
f 75/84/163 66/74/136 74/83/164
s 12
f 68/76/139 67/75/140 76/85/165
f 76/85/165 67/75/140 75/84/166
s 13
f 69/77/143 68/76/144 77/86/167
f 77/86/167 68/76/144 76/85/168
s 14
f 70/78/147 69/77/148 78/87/169
f 78/87/169 69/77/148 77/86/170
s 15
f 71/79/151 70/78/152 79/88/171
f 79/88/171 70/78/152 78/87/172
s 16
f 72/80/155 71/79/156 80/89/173
f 80/89/173 71/79/156 79/88/174
s 17
f 65/81/159 72/80/160 73/90/175
f 73/90/175 72/80/160 80/89/176
s 10
f 74/83/161 73/82/162 82/92/177
f 82/92/177 73/82/162 81/91/178
s 11
f 75/84/163 74/83/164 83/93/179
f 83/93/179 74/83/164 82/92/180
s 12
f 76/85/165 75/84/166 84/94/181
f 84/94/181 75/84/166 83/93/182
s 13
f 77/86/167 76/85/168 85/95/183
f 85/95/183 76/85/168 84/94/184
s 14
f 78/87/169 77/86/170 86/96/185
f 86/96/185 77/86/170 85/95/186
s 15
f 79/88/171 78/87/172 87/97/187
f 87/97/187 78/87/172 86/96/188
s 16
f 80/89/173 79/88/174 88/98/189
f 88/98/189 79/88/174 87/97/190
s 17
f 73/90/175 80/89/176 81/99/191
f 81/99/191 80/89/176 88/98/192
s 10
f 82/92/177 81/91/178 90/101/193
f 90/101/193 81/91/178 89/100/194
s 11
f 83/93/179 82/92/180 91/102/195
f 91/102/195 82/92/180 90/101/196
s 12
f 84/94/181 83/93/182 92/103/197
f 92/103/197 83/93/182 91/102/198
s 13
f 85/95/183 84/94/184 93/104/199
f 93/104/199 84/94/184 92/103/200
s 14
f 86/96/185 85/95/186 94/105/201
f 94/105/201 85/95/186 93/104/202
s 15
f 87/97/187 86/96/188 95/106/203
f 95/106/203 86/96/188 94/105/204
s 16
f 88/98/189 87/97/190 96/107/205
f 96/107/205 87/97/190 95/106/206
s 17
f 81/99/191 88/98/192 89/108/207
f 89/108/207 88/98/192 96/107/208
s 10
f 90/101/193 89/100/194 98/110/209
f 98/110/209 89/100/194 97/109/210
s 11
f 91/102/195 90/101/196 99/111/211
f 99/111/211 90/101/196 98/110/212
s 12
f 92/103/197 91/102/198 100/112/213
f 100/112/213 91/102/198 99/111/214
s 13
f 93/104/199 92/103/200 101/113/215
f 101/113/215 92/103/200 100/112/216
s 14
f 94/105/201 93/104/202 102/114/217
f 102/114/217 93/104/202 101/113/218
s 15
f 95/106/203 94/105/204 103/115/219
f 103/115/219 94/105/204 102/114/220
s 16
f 96/107/205 95/106/206 104/116/221
f 104/116/221 95/106/206 103/115/222
s 17
f 89/108/207 96/107/208 97/117/223
f 97/117/223 96/107/208 104/116/224
s 10
f 98/110/209 97/109/210 106/119/225
f 106/119/225 97/109/210 105/118/226
s 11
f 99/111/211 98/110/212 107/120/227
f 107/120/227 98/110/212 106/119/228
s 12
f 100/112/213 99/111/214 108/121/229
f 108/121/229 99/111/214 107/120/230
s 13
f 101/113/215 100/112/216 109/122/231
f 109/122/231 100/112/216 108/121/232
s 14
f 102/114/217 101/113/218 110/123/233
f 110/123/233 101/113/218 109/122/234
s 15
f 103/115/219 102/114/220 111/124/235
f 111/124/235 102/114/220 110/123/236
s 16
f 104/116/221 103/115/222 112/125/237
f 112/125/237 103/115/222 111/124/238
s 17
f 97/117/223 104/116/224 105/126/239
f 105/126/239 104/116/224 112/125/240
s 18
f 106/119/241 105/118/242 2/128/243
f 2/128/243 105/118/242 1/127/244
f 107/120/245 106/119/241 3/129/246
f 3/129/246 106/119/241 2/128/243
f 108/121/247 107/120/245 4/130/248
f 4/130/248 107/120/245 3/129/246
f 109/122/249 108/121/247 5/131/250
f 5/131/250 108/121/247 4/130/248
f 110/123/251 109/122/249 6/132/252
f 6/132/252 109/122/249 5/131/250
f 111/124/253 110/123/251 7/133/254
f 7/133/254 110/123/251 6/132/252
f 112/125/255 111/124/253 8/134/256
f 8/134/256 111/124/253 7/133/254
f 105/126/242 112/125/255 1/135/244
f 1/135/244 112/125/255 8/134/256
