# This file uses millimeters as units for non-parametric coordinates.

mtllib puerta_redonda.mtl
g default
v -12.301989 0.434742 7.024573
v -12.301989 0.434742 8.362199
v -12.301989 0.434742 9.699825
v -12.301989 2.996761 9.699825
v -12.301989 3.305779 9.634358
v -12.301989 3.584547 9.444362
v -12.301989 3.805779 9.148437
v -12.301989 3.947819 8.775549
v -12.301989 3.996761 8.362199
v -12.301989 3.947819 7.948850
v -12.301989 3.805779 7.575962
v -12.301989 3.584547 7.280037
v -12.301989 3.305779 7.090043
v -12.301989 2.996761 7.024573
v -12.166788 3.584547 9.444362
v -12.166788 3.305779 9.634358
v -12.166788 3.805779 9.148437
v -12.166788 3.947819 8.775549
v -12.166788 3.996761 8.362199
v -12.166788 3.947819 7.948850
v -12.166788 3.805779 7.575962
v -12.166788 3.584547 7.280037
v -12.166788 3.305779 7.090043
v -12.166788 2.996761 7.024573
v -12.166788 0.434742 7.024573
v -12.166788 0.434742 8.362199
v -12.166788 0.434742 9.699825
v -12.166788 2.996761 9.699825
vt 0.656250 0.156250
vt 0.656250 0.156250
vt 0.648603 0.107966
vt 0.648603 0.107966
vt 0.612500 0.312500
vt 0.612500 0.312500
vt 0.500000 0.156250
vt 0.500000 0.156250
vt 0.343750 0.156250
vt 0.343750 0.156250
vt 0.351397 0.107966
vt 0.351397 0.107966
vt 0.343750 0.156250
vt 0.343750 0.156250
vt 0.373591 0.064409
vt 0.373591 0.064409
vt 0.591842 0.029841
vt 0.591842 0.029841
vt 0.548284 0.007647
vt 0.548284 0.007647
vt 0.451716 0.007647
vt 0.451716 0.007647
vt 0.408159 0.029841
vt 0.408159 0.029841
vt 0.500000 -0.000000
vt 0.500000 -0.000000
vt 0.626409 0.064408
vt 0.626409 0.064408
vt 0.323331 0.877706
vt 0.292313 0.800783
vt 0.281625 0.715512
vt 0.281625 0.008547
vt 0.500000 0.008547
vt 0.718375 0.008547
vt 0.718375 0.715512
vt 0.707687 0.800783
vt 0.676669 0.877706
vt 0.628358 0.938753
vt 0.567482 0.977948
vt 0.500000 0.991453
vt 0.432518 0.977948
vt 0.371642 0.938753
vt 0.725617 0.000000
vt 0.500000 0.000000
vt 0.274383 0.000000
vt 0.274383 0.719260
vt 0.285425 0.806014
vt 0.317471 0.884275
vt 0.367385 0.946384
vt 0.430280 0.986260
vt 0.500000 1.000000
vt 0.569720 0.986260
vt 0.632615 0.946384
vt 0.682528 0.884275
vt 0.714575 0.806014
vt 0.725617 0.719260
vn 0.000000 0.207251 0.978288
vn 0.000000 0.207255 0.978287
vn 0.000000 0.207252 0.978288
vn 0.000000 0.207255 0.978287
vn 0.000000 0.000000 1.000000
vn 0.000000 0.000000 1.000000
vn 0.000000 0.000000 1.000000
vn 0.000000 0.000000 1.000000
vn 0.000000 -1.000000 0.000000
vn 0.000000 -1.000000 0.000000
vn 0.000000 -1.000000 0.000000
vn 0.000000 -1.000000 0.000000
vn 0.000000 -1.000000 0.000000
vn 0.000000 -1.000000 0.000000
vn 0.000000 -1.000000 0.000000
vn 0.000000 -1.000000 0.000000
vn -0.000000 0.207260 -0.978286
vn -0.000000 0.207259 -0.978286
vn -0.000000 0.207260 -0.978286
vn -0.000000 0.207259 -0.978286
vn -0.000000 0.000000 -1.000000
vn -0.000000 0.000000 -1.000000
vn -0.000000 0.000000 -1.000000
vn -0.000000 0.000000 -1.000000
vn -0.000000 0.563182 -0.826333
vn -0.000000 0.563187 -0.826329
vn -0.000000 0.563182 -0.826333
vn -0.000000 0.563187 -0.826329
vn 0.000000 0.934498 0.355968
vn 0.000000 0.934498 0.355968
vn 0.000000 0.934498 0.355968
vn 0.000000 0.934498 0.355968
vn -0.000000 0.934498 -0.355968
vn -0.000000 0.934498 -0.355968
vn -0.000000 0.934498 -0.355968
vn -0.000000 0.934498 -0.355968
vn -0.000000 0.800926 -0.598763
vn -0.000000 0.800924 -0.598765
vn -0.000000 0.800926 -0.598763
vn -0.000000 0.800924 -0.598765
vn -0.000000 0.993063 -0.117584
vn -0.000000 0.993063 -0.117583
vn -0.000000 0.993063 -0.117584
vn -0.000000 0.993063 -0.117583
vn 0.000000 0.993063 0.117584
vn 0.000000 0.993063 0.117583
vn 0.000000 0.993063 0.117584
vn 0.000000 0.993063 0.117583
vn 0.000000 0.563188 0.826329
vn 0.000000 0.563190 0.826328
vn 0.000000 0.563188 0.826329
vn 0.000000 0.563190 0.826328
vn 0.000000 0.800924 0.598767
vn 0.000000 0.800924 0.598765
vn 0.000000 0.800924 0.598767
vn 0.000000 0.800924 0.598765
vn -1.000000 0.000000 0.000000
vn -1.000000 0.000000 0.000000
vn -1.000000 0.000000 -0.000000
vn -1.000000 0.000000 0.000000
vn -1.000000 0.000000 0.000000
vn -1.000000 0.000000 0.000000
vn -1.000000 0.000000 -0.000000
vn -1.000000 0.000000 -0.000000
vn -1.000000 0.000000 0.000000
vn -1.000000 0.000000 0.000000
vn -1.000000 0.000000 -0.000000
vn -1.000000 0.000000 -0.000001
vn -1.000000 0.000000 0.000001
vn -1.000000 0.000000 -0.000004
vn 1.000000 0.000000 0.000000
vn 1.000000 0.000000 0.000000
vn 1.000000 0.000000 0.000000
vn 1.000000 0.000000 0.000000
vn 1.000000 0.000000 0.000000
vn 1.000000 0.000000 0.000000
vn 1.000000 0.000000 0.000000
vn 1.000000 0.000000 0.000000
vn 1.000000 0.000000 0.000000
vn 1.000000 0.000000 0.000000
vn 1.000000 0.000000 0.000000
vn 1.000000 0.000000 0.000000
vn 1.000000 0.000000 0.000000
vn 1.000000 0.000000 0.000000
s 1
g pasted__polySurface30 pasted__polySurface28 group1
usemtl lambert8SG
f 4/1/1 28/2/2 5/4/3
f 5/4/3 28/2/2 16/3/4
s 2
f 3/5/5 27/6/6 4/1/7
f 4/1/7 27/6/6 28/2/8
s 3
f 2/7/9 26/8/10 3/5/11
f 3/5/11 26/8/10 27/6/12
s 4
f 1/9/13 25/10/14 2/7/15
f 2/7/15 25/10/14 26/8/16
s 5
f 13/11/17 23/12/18 14/14/19
f 14/14/19 23/12/18 24/13/20
s 6
f 1/9/21 14/14/22 25/10/23
f 25/10/23 14/14/22 24/13/24
s 7
f 12/15/25 22/16/26 13/11/27
f 13/11/27 22/16/26 23/12/28
s 8
f 7/17/29 17/18/30 8/20/31
f 8/20/31 17/18/30 18/19/32
s 9
f 10/21/33 20/22/34 11/24/35
f 11/24/35 20/22/34 21/23/36
s 10
f 11/24/37 21/23/38 12/15/39
f 12/15/39 21/23/38 22/16/40
s 11
f 9/25/41 19/26/42 10/21/43
f 10/21/43 19/26/42 20/22/44
s 12
f 8/20/45 18/19/46 9/25/47
f 9/25/47 18/19/46 19/26/48
s 13
f 5/4/49 16/3/50 6/28/51
f 6/28/51 16/3/50 15/27/52
s 14
f 6/28/53 15/27/54 7/17/55
f 7/17/55 15/27/54 17/18/56
s 15
f 1/43/57 2/44/58 14/56/59
f 3/45/60 4/46/61 2/44/58
f 2/44/58 4/46/61 14/56/59
f 4/46/61 5/47/62 14/56/59
f 5/47/62 6/48/63 14/56/59
f 6/48/63 7/49/64 14/56/59
f 7/49/64 8/50/65 14/56/59
f 8/50/65 9/51/66 14/56/59
f 9/51/66 10/52/67 14/56/59
f 10/52/67 11/53/68 14/56/59
f 11/53/68 12/54/69 14/56/59
f 12/54/69 13/55/70 14/56/59
s 16
f 27/32/71 26/33/72 28/31/73
f 25/34/74 24/35/75 26/33/72
f 26/33/72 24/35/75 28/31/73
f 28/31/73 24/35/75 16/30/76
f 16/30/76 24/35/75 15/29/77
f 15/29/77 24/35/75 17/42/78
f 24/35/75 23/36/79 17/42/78
f 23/36/79 22/37/80 17/42/78
f 22/37/80 21/38/81 17/42/78
f 21/38/81 20/39/82 17/42/78
f 20/39/82 19/40/83 17/42/78
f 19/40/83 18/41/84 17/42/78
